<?xml version="1.0" encoding="UTF-8"?>
<svg version="1.1" xmlns="http://www.w3.org/2000/svg" width="200" height="200">
<path d="M0 0 C66 0 132 0 200 0 C200 66 200 132 200 200 C134 200 68 200 0 200 C0 134 0 68 0 0 Z " fill="#FEF9EB" transform="translate(0,0)"/>
<path d="M0 0 C3.1875 -0.5 3.1875 -0.5 7 0 C9.55351065 2.76841006 12 6.13887863 12 10 C12.66 10 13.32 10 14 10 C14.268125 9.0925 14.53625 8.185 14.8125 7.25 C15.96487458 4.09613272 16.64139214 2.34386656 19 0 C24.27608099 -1.3581371 28.79045799 -1.38885093 34 0 C37.91677481 3.41750213 39.98315772 8.30906971 42 13 C42.495 6.565 42.495 6.565 43 0 C46.375 -0.1875 46.375 -0.1875 50 0 C52.26954631 3.40431947 52.36549949 5.16524202 52.625 9.1875 C52.69976562 10.27417969 52.77453125 11.36085938 52.8515625 12.48046875 C52.90054688 13.31191406 52.94953125 14.14335938 53 15 C53.66 15 54.32 15 55 15 C54.6596875 13.8553125 54.6596875 13.8553125 54.3125 12.6875 C54 10 54 10 55.3125 8.1875 C57 7 57 7 59 7 C59.144375 6.21625 59.28875 5.4325 59.4375 4.625 C60 2 60 2 61 0 C63.64 0 66.28 0 69 0 C70.33852796 3.62310328 71.66993718 7.24878144 73 10.875 C73.3815625 11.90753906 73.763125 12.94007812 74.15625 14.00390625 C74.5171875 14.99003906 74.878125 15.97617188 75.25 16.9921875 C75.75273437 18.35899658 75.75273437 18.35899658 76.265625 19.75341797 C77 22 77 22 77 24 C77.66 24 78.32 24 79 24 C79.25 26.3125 79.25 26.3125 79 29 C78.38898438 29.44601563 77.77796875 29.89203125 77.1484375 30.3515625 C74.56190545 32.336138 73.72064672 34.11509961 72.375 37.0625 C70.18256131 41.81743869 70.18256131 41.81743869 68 44 C67.53993654 46.20250992 67.53993654 46.20250992 67.375 48.625 C67.26285156 49.85089844 67.26285156 49.85089844 67.1484375 51.1015625 C67.09945312 51.72804687 67.05046875 52.35453125 67 53 C66.34 53 65.68 53 65 53 C64.505 51.02 64.505 51.02 64 49 C61.64214682 49.89335797 61.64214682 49.89335797 60.875 53.0625 C60.441875 54.5165625 60.441875 54.5165625 60 56 C59.34 54.68 58.68 53.36 58 52 C57.01 52.99 56.02 53.98 55 55 C55.33 53.02 55.66 51.04 56 49 C55.34 49 54.68 49 54 49 C54 49.66 54 50.32 54 51 C46.46900602 54.47584338 41.01477221 54.0555127 33 52 C32.80664062 52.78246094 32.61328125 53.56492188 32.4140625 54.37109375 C32.02347656 55.88896484 32.02347656 55.88896484 31.625 57.4375 C31.36976562 58.44683594 31.11453125 59.45617187 30.8515625 60.49609375 C30 63 30 63 28 64 C28.144375 63.40832031 28.28875 62.81664062 28.4375 62.20703125 C29.40822694 58.07470059 30.27593702 54.2770238 30 50 C28.68 49.67 27.36 49.34 26 49 C26.33 47.02 26.66 45.04 27 43 C27.99 43 28.98 43 30 43 C30 44.32 30 45.64 30 47 C30.99 45.02 31.98 43.04 33 41 C33.66 41 34.32 41 35 41 C35.66 39.35 36.32 37.7 37 36 C38.32 36.33 39.64 36.66 41 37 C41.226875 36.21625 41.45375 35.4325 41.6875 34.625 C43 32 43 32 45.625 30.6875 C46.40875 30.460625 47.1925 30.23375 48 30 C46.91138672 29.74089844 46.91138672 29.74089844 45.80078125 29.4765625 C41.77136033 27.35226528 40.35065404 24.27659564 38.1875 20.375 C37.57745117 19.31539062 37.57745117 19.31539062 36.95507812 18.234375 C35.95720371 16.49689955 34.97684607 14.74938447 34 13 C33.67 17.95 33.34 22.9 33 28 C30.69 28 28.38 28 26 28 C25.67 22.06 25.34 16.12 25 10 C24.34 11.65 23.68 13.3 23 15 C21.97132812 15.72123047 21.97132812 15.72123047 20.921875 16.45703125 C18.73082832 17.88804165 18.73082832 17.88804165 18.390625 20.69921875 C18.32101563 22.17841797 18.32101563 22.17841797 18.25 23.6875 C18.19328125 24.68136719 18.1365625 25.67523438 18.078125 26.69921875 C18.05234375 27.45847656 18.0265625 28.21773437 18 29 C12.25 29.125 12.25 29.125 10 28 C9.92358876 26.48094458 9.91710126 24.95833922 9.9375 23.4375 C9.46620941 15.98521752 5.70732489 10.44444764 1.93359375 4.2109375 C0 1 0 1 0 0 Z " fill="#F8F4E7" transform="translate(78,71)"/>
<path d="M0 0 C3.1875 -0.5 3.1875 -0.5 7 0 C9.55351065 2.76841006 12 6.13887863 12 10 C12.66 10 13.32 10 14 10 C14.268125 9.0925 14.53625 8.185 14.8125 7.25 C15.96487458 4.09613272 16.64139214 2.34386656 19 0 C24.27608099 -1.3581371 28.79045799 -1.38885093 34 0 C37.91677481 3.41750213 39.98315772 8.30906971 42 13 C42.495 6.565 42.495 6.565 43 0 C45.31 0 47.62 0 50 0 C50 9.24 50 18.48 50 28 C43 28 43 28 41.37915039 26.62304688 C41.03875732 25.99462891 40.69836426 25.36621094 40.34765625 24.71875 C39.96416016 24.04199219 39.58066406 23.36523438 39.18554688 22.66796875 C38.81494141 21.95253906 38.44433594 21.23710938 38.0625 20.5 C37.66482422 19.78457031 37.26714844 19.06914063 36.85742188 18.33203125 C35.88113425 16.56765603 34.93732433 14.78537967 34 13 C33.67 17.95 33.34 22.9 33 28 C30.69 28 28.38 28 26 28 C25.67 22.06 25.34 16.12 25 10 C24.34 11.65 23.68 13.3 23 15 C21.97132812 15.72123047 21.97132812 15.72123047 20.921875 16.45703125 C18.73082832 17.88804165 18.73082832 17.88804165 18.390625 20.69921875 C18.32101563 22.17841797 18.32101563 22.17841797 18.25 23.6875 C18.19328125 24.68136719 18.1365625 25.67523438 18.078125 26.69921875 C18.05234375 27.45847656 18.0265625 28.21773437 18 29 C12.25 29.125 12.25 29.125 10 28 C9.92358876 26.48094458 9.91710126 24.95833922 9.9375 23.4375 C9.46620941 15.98521752 5.70732489 10.44444764 1.93359375 4.2109375 C0 1 0 1 0 0 Z " fill="#CE8671" transform="translate(78,71)"/>
<path d="M0 0 C2.64 0 5.28 0 8 0 C8 9.24 8 18.48 8 28 C6.02 28 4.04 28 2 28 C1.67 24.04 1.34 20.08 1 16 C-0.32 19.96 -1.64 23.92 -3 28 C-4.98 28 -6.96 28 -9 28 C-10.32 24.37 -11.64 20.74 -13 17 C-13.33 20.63 -13.66 24.26 -14 28 C-15.98 28 -17.96 28 -20 28 C-20 19.09 -20 10.18 -20 1 C-17.36 1 -14.72 1 -12 1 C-7.59225513 11.37357631 -7.59225513 11.37357631 -7 17 C-6.34 17 -5.68 17 -5 17 C-4.9175 16.236875 -4.835 15.47375 -4.75 14.6875 C-3.71222135 9.5850883 -1.85712968 4.8544506 0 0 Z " fill="#FAC7AE" transform="translate(69,71)"/>
<path d="M0 0 C2.64 0 5.28 0 8 0 C9.33852796 3.62310328 10.66993718 7.24878144 12 10.875 C12.3815625 11.90753906 12.763125 12.94007812 13.15625 14.00390625 C13.5171875 14.99003906 13.878125 15.97617188 14.25 16.9921875 C14.58515625 17.90339355 14.9203125 18.81459961 15.265625 19.75341797 C16 22 16 22 16 24 C16.66 24 17.32 24 18 24 C18.25 26.3125 18.25 26.3125 18 29 C17.38898438 29.44601563 16.77796875 29.89203125 16.1484375 30.3515625 C13.56190545 32.336138 12.72064672 34.11509961 11.375 37.0625 C9.18256131 41.81743869 9.18256131 41.81743869 7 44 C6.53993654 46.20250992 6.53993654 46.20250992 6.375 48.625 C6.30023438 49.44226563 6.22546875 50.25953125 6.1484375 51.1015625 C6.07496094 52.04128906 6.07496094 52.04128906 6 53 C5.34 53 4.68 53 4 53 C3.73964737 45.84030255 4.2333751 39.27152759 7.6875 32.875 C9.36594347 29.19840955 8.85381657 26.8809844 8 23 C5.03 22.67 2.06 22.34 -1 22 C-1.33 23.98 -1.66 25.96 -2 28 C-4.31 28 -6.62 28 -9 28 C-7.28999349 18.59496422 -4.28680914 8.57361828 0 0 Z " fill="#FAC2A6" transform="translate(139,71)"/>
<path d="M0 0 C2.64 0 5.28 0 8 0 C8 9.24 8 18.48 8 28 C6.02 28 4.04 28 2 28 C1.67 24.04 1.34 20.08 1 16 C-0.32 19.96 -1.64 23.92 -3 28 C-4.98 28 -6.96 28 -9 28 C-10.32 24.37 -11.64 20.74 -13 17 C-13.33 20.63 -13.66 24.26 -14 28 C-15.98 28 -17.96 28 -20 28 C-20 19.09 -20 10.18 -20 1 C-17.36 1 -14.72 1 -12 1 C-7.59225513 11.37357631 -7.59225513 11.37357631 -7 17 C-6.34 17 -5.68 17 -5 17 C-4.9175 16.236875 -4.835 15.47375 -4.75 14.6875 C-3.71222135 9.5850883 -1.85712968 4.8544506 0 0 Z M-19 2 C-19 10.25 -19 18.5 -19 27 C-18.01 27 -17.02 27 -16 27 C-16 21.06 -16 15.12 -16 9 C-13.42825625 10.28587188 -13.4027107 11.14421859 -12.4921875 13.81640625 C-12.22792969 14.58017578 -11.96367188 15.34394531 -11.69140625 16.13085938 C-11.42199219 16.93330078 -11.15257812 17.73574219 -10.875 18.5625 C-10.59785156 19.36880859 -10.32070313 20.17511719 -10.03515625 21.00585938 C-9.3502052 23.00166501 -8.67425584 25.00055579 -8 27 C-6.68 27 -5.36 27 -4 27 C-3.16112944 24.56427941 -2.32873471 22.12666783 -1.5 19.6875 C-1.14228516 18.65206055 -1.14228516 18.65206055 -0.77734375 17.59570312 C0.23208263 14.61068511 1 12.17341086 1 9 C1.66 9 2.32 9 3 9 C3 14.61 3 20.22 3 26 C3.99 26 4.98 26 6 26 C6 18.08 6 10.16 6 2 C4.35 2 2.7 2 1 2 C-0.00605593 4.60197202 -1.00502525 7.20629362 -2 9.8125 C-2.42925781 10.91948242 -2.42925781 10.91948242 -2.8671875 12.04882812 C-3.13789062 12.76103516 -3.40859375 13.47324219 -3.6875 14.20703125 C-3.93886719 14.8616333 -4.19023438 15.51623535 -4.44921875 16.19067383 C-5.14560906 18.16311143 -5.14560906 18.16311143 -5 21 C-5.66 21 -6.32 21 -7 21 C-7.18175781 20.29875 -7.36351562 19.5975 -7.55078125 18.875 C-9.07999067 13.10321471 -10.80054363 7.55100893 -13 2 C-14.98 2 -16.96 2 -19 2 Z " fill="#AA6051" transform="translate(69,71)"/>
<path d="M0 0 C3.1875 -0.5 3.1875 -0.5 7 0 C9.55351065 2.76841006 12 6.13887863 12 10 C12.66 10 13.32 10 14 10 C14.268125 9.0925 14.53625 8.185 14.8125 7.25 C16.67151767 2.16216216 16.67151767 2.16216216 19 0 C22.1875 -0.25 22.1875 -0.25 25 0 C24.43603899 4.30803546 22.87131782 7.0194307 20.5 10.625 C16.96366076 16.45381274 15.90677067 21.23421412 16 28 C14.02 28 12.04 28 10 28 C10.03222656 27.3915625 10.06445312 26.783125 10.09765625 26.15625 C9.98225869 17.43732304 6.32388172 11.46085737 1.93359375 4.2109375 C0 1 0 1 0 0 Z " fill="#F7C7B0" transform="translate(78,71)"/>
<path d="M0 0 C2.64 0 5.28 0 8 0 C9.33852796 3.62310328 10.66993718 7.24878144 12 10.875 C12.3815625 11.90753906 12.763125 12.94007812 13.15625 14.00390625 C13.5171875 14.99003906 13.878125 15.97617188 14.25 16.9921875 C14.58515625 17.90339355 14.9203125 18.81459961 15.265625 19.75341797 C16 22 16 22 16 24 C16.66 24 17.32 24 18 24 C18.25 26.3125 18.25 26.3125 18 29 C17.38898438 29.44601563 16.77796875 29.89203125 16.1484375 30.3515625 C13.56190545 32.336138 12.72064672 34.11509961 11.375 37.0625 C9.18256131 41.81743869 9.18256131 41.81743869 7 44 C6.53993654 46.20250992 6.53993654 46.20250992 6.375 48.625 C6.30023438 49.44226563 6.22546875 50.25953125 6.1484375 51.1015625 C6.07496094 52.04128906 6.07496094 52.04128906 6 53 C5.34 53 4.68 53 4 53 C3.73964737 45.84030255 4.2333751 39.27152759 7.6875 32.875 C9.36594347 29.19840955 8.85381657 26.8809844 8 23 C5.03 22.67 2.06 22.34 -1 22 C-1.33 23.98 -1.66 25.96 -2 28 C-4.31 28 -6.62 28 -9 28 C-7.28999349 18.59496422 -4.28680914 8.57361828 0 0 Z M1 2 C-4.59562271 14.13926289 -4.59562271 14.13926289 -7 27 C-5.68 26.67 -4.36 26.34 -3 26 C-2.67 24.35 -2.34 22.7 -2 21 C1.96 21 5.92 21 10 21 C10.33 22.98 10.66 24.96 11 27 C12.32 27 13.64 27 15 27 C14.38074535 23.5847973 13.53132639 20.40646528 12.37109375 17.13671875 C12.05849609 16.25048828 11.74589844 15.36425781 11.42382812 14.45117188 C11.09833984 13.53916016 10.77285156 12.62714844 10.4375 11.6875 C10.10814453 10.75615234 9.77878906 9.82480469 9.43945312 8.86523438 C8.62932179 6.57573277 7.81608317 4.28738542 7 2 C5.02 2 3.04 2 1 2 Z " fill="#B26D5F" transform="translate(139,71)"/>
<path d="M0 0 C1.32 0 2.64 0 4 0 C3.75 3.375 3.75 3.375 3 7 C2.02546875 7.41765625 2.02546875 7.41765625 1.03125 7.84375 C-1.31600298 8.86858358 -1.31600298 8.86858358 -1.828125 11.8203125 C-1.96734375 12.91085938 -2.1065625 14.00140625 -2.25 15.125 C-2.39953125 16.22070312 -2.5490625 17.31640625 -2.703125 18.4453125 C-2.85007812 19.70988281 -2.85007812 19.70988281 -3 21 C-5.31 20.67 -7.62 20.34 -10 20 C-10.19335938 20.78246094 -10.38671875 21.56492187 -10.5859375 22.37109375 C-10.84632812 23.38300781 -11.10671875 24.39492187 -11.375 25.4375 C-11.63023438 26.44683594 -11.88546875 27.45617187 -12.1484375 28.49609375 C-13 31 -13 31 -15 32 C-14.855625 31.40832031 -14.71125 30.81664062 -14.5625 30.20703125 C-13.59177306 26.07470059 -12.72406298 22.2770238 -13 18 C-14.32 17.67 -15.64 17.34 -17 17 C-16.67 15.02 -16.34 13.04 -16 11 C-15.01 11 -14.02 11 -13 11 C-13 12.32 -13 13.64 -13 15 C-12.01 13.02 -11.02 11.04 -10 9 C-9.34 9 -8.68 9 -8 9 C-7.34 7.35 -6.68 5.7 -6 4 C-4.68 4.33 -3.36 4.66 -2 5 C-1.34 3.35 -0.68 1.7 0 0 Z " fill="#EDE9DD" transform="translate(121,103)"/>
<path d="M0 0 C0.0270043 1.45823212 0.04639787 2.91660675 0.0625 4.375 C0.07410156 5.18710938 0.08570312 5.99921875 0.09765625 6.8359375 C0 9 0 9 -1 11 C-0.34 11.33 0.32 11.66 1 12 C0.01 12 -0.98 12 -2 12 C-2.33 9.69 -2.66 7.38 -3 5 C-3.99 5.33 -4.98 5.66 -6 6 C-6.33 7.65 -6.66 9.3 -7 11 C-8.134375 11.12375 -9.26875 11.2475 -10.4375 11.375 C-12.2009375 11.684375 -12.2009375 11.684375 -14 12 C-14.33 12.66 -14.66 13.32 -15 14 C-17 11 -17 11 -16.8984375 9.02734375 C-15.47228529 3.33337785 -15.47228529 3.33337785 -12.875 1.5 C-12.25625 1.335 -11.6375 1.17 -11 1 C-10.01 1.99 -9.02 2.98 -8 4 C-7.236875 3.34 -6.47375 2.68 -5.6875 2 C-3 0 -3 0 0 0 Z " fill="#CBC7BC" transform="translate(99,111)"/>
<path d="M0 0 C1.98 0.495 1.98 0.495 4 1 C6.68149993 0.61432869 6.68149993 0.61432869 9 0 C9.0270043 1.45823212 9.04639787 2.91660675 9.0625 4.375 C9.07410156 5.18710938 9.08570313 5.99921875 9.09765625 6.8359375 C9 9 9 9 8 11 C8.99 11.33 9.98 11.66 11 12 C6.78954355 13.87131398 3.59422694 14 -1 14 C-0.67 9.38 -0.34 4.76 0 0 Z " fill="#E3E0D5" transform="translate(119,111)"/>
<path d="M0 0 C3.96 0 7.92 0 12 0 C12 1.65 12 3.3 12 5 C14.31 4.01 16.62 3.02 19 2 C20.28497537 5.85492611 19.4052209 7.40346836 18.0625 11.1875 C17.68222656 12.27417969 17.30195312 13.36085938 16.91015625 14.48046875 C16.60980469 15.31191406 16.30945313 16.14335938 16 17 C15.34 17 14.68 17 14 17 C12.35 12.05 10.7 7.1 9 2 C6.36 1.67 3.72 1.34 1 1 C1 9.91 1 18.82 1 28 C0.67 28 0.34 28 0 28 C0 18.76 0 9.52 0 0 Z " fill="#F6DACB" transform="translate(48,71)"/>
<path d="M0 0 C0.66 0 1.32 0 2 0 C2 9.24 2 18.48 2 28 C1.67 28 1.34 28 1 28 C0.67 22.06 0.34 16.12 0 10 C-0.66 11.65 -1.32 13.3 -2 15 C-2.68578125 15.48082031 -3.3715625 15.96164063 -4.078125 16.45703125 C-6.26917168 17.88804165 -6.26917168 17.88804165 -6.609375 20.69921875 C-6.65578125 21.68535156 -6.7021875 22.67148438 -6.75 23.6875 C-6.80671875 24.68136719 -6.8634375 25.67523438 -6.921875 26.69921875 C-6.94765625 27.45847656 -6.9734375 28.21773437 -7 29 C-8.98 29 -10.96 29 -13 29 C-11.68 28.67 -10.36 28.34 -9 28 C-9.12181641 27.01773438 -9.12181641 27.01773438 -9.24609375 26.015625 C-9.77074922 18.43488887 -7.85616288 14.03142563 -3.7265625 7.7265625 C-2.12456568 5.19671232 -1.01127303 2.80909175 0 0 Z " fill="#F6DBC6" transform="translate(103,71)"/>
<path d="M0 0 C0.66 0 1.32 0 2 0 C2.25 2.3125 2.25 2.3125 2 5 C1.38898438 5.44601563 0.77796875 5.89203125 0.1484375 6.3515625 C-2.43809455 8.336138 -3.27935328 10.11509961 -4.625 13.0625 C-6.81743869 17.81743869 -6.81743869 17.81743869 -9 20 C-9.46006346 22.20250992 -9.46006346 22.20250992 -9.625 24.625 C-9.69976562 25.44226563 -9.77453125 26.25953125 -9.8515625 27.1015625 C-9.90054688 27.72804688 -9.94953125 28.35453125 -10 29 C-10.66 29 -11.32 29 -12 29 C-12.31016848 20.47036677 -11.05450817 13.58016745 -7 6 C-6.31363375 3.76474965 -6.31363375 3.76474965 -6 2 C-6 2.66 -6 3.32 -6 4 C-3.69 4 -1.38 4 1 4 C0.67 2.68 0.34 1.36 0 0 Z " fill="#8D8A7F" transform="translate(155,95)"/>
<path d="M0 0 C0.66 0.33 1.32 0.66 2 1 C2.4140625 3.72265625 2.4140625 3.72265625 2.625 7.0625 C2.69976562 8.16722656 2.77453125 9.27195312 2.8515625 10.41015625 C2.90054688 11.26480469 2.94953125 12.11945313 3 13 C3.66 13 4.32 13 5 13 C4.6596875 11.8553125 4.6596875 11.8553125 4.3125 10.6875 C4.209375 9.800625 4.10625 8.91375 4 8 C5.4375 6.1875 5.4375 6.1875 7 5 C7.66 5.33 8.32 5.66 9 6 C7.8588375 9.31412795 6.71129255 12.62600993 5.5625 15.9375 C5.23701172 16.88302734 4.91152344 17.82855469 4.57617188 18.80273438 C4.26357422 19.70185547 3.95097656 20.60097656 3.62890625 21.52734375 C3.34088135 22.35999756 3.05285645 23.19265137 2.75610352 24.05053711 C2 26 2 26 1 27 C-1.33297433 27.04092937 -3.66705225 27.04241723 -6 27 C-6 26.67 -6 26.34 -6 26 C-4.02 26 -2.04 26 0 26 C0 17.42 0 8.84 0 0 Z " fill="#F7D8C7" transform="translate(128,73)"/>
<path d="M0 0 C0.33 0 0.66 0 1 0 C1 8.25 1 16.5 1 25 C-0.98 25 -2.96 25 -5 25 C-5.33 21.04 -5.66 17.08 -6 13 C-7.32 16.96 -8.64 20.92 -10 25 C-11.98 25 -13.96 25 -16 25 C-19.125 18.5 -19.125 18.5 -18 14 C-17.01 17.3 -16.02 20.6 -15 24 C-13.68 24 -12.36 24 -11 24 C-10.89042969 23.3709375 -10.78085938 22.741875 -10.66796875 22.09375 C-9.61950734 16.43376318 -8.17168983 11.3305114 -6 6 C-5.34 6 -4.68 6 -4 6 C-4 11.94 -4 17.88 -4 24 C-2.68 24 -1.36 24 0 24 C0 16.08 0 8.16 0 0 Z " fill="#AC5C4B" transform="translate(76,74)"/>
<path d="M0 0 C1.4540625 0.0309375 1.4540625 0.0309375 2.9375 0.0625 C3.6362693 1.82891683 4.32116583 3.60082664 5 5.375 C5.38285156 6.36113281 5.76570313 7.34726563 6.16015625 8.36328125 C6.9375 11.0625 6.9375 11.0625 5.9375 14.0625 C1.94662739 11.66797643 1.34197114 9.36954484 -0.0625 5.0625 C-1.0525 4.7325 -2.0425 4.4025 -3.0625 4.0625 C-3.31773437 5.07957031 -3.31773437 5.07957031 -3.578125 6.1171875 C-5.281886 12.66035475 -7.40616811 18.84641369 -10.0625 25.0625 C-11.2348995 21.54530149 -10.83067271 20.63612567 -9.6640625 17.2109375 C-9.34953125 16.27765625 -9.035 15.344375 -8.7109375 14.3828125 C-8.37320313 13.41085938 -8.03546875 12.43890625 -7.6875 11.4375 C-7.3575 10.4578125 -7.0275 9.478125 -6.6875 8.46875 C-3.82864803 0.07813567 -3.82864803 0.07813567 0 0 Z " fill="#F8C9B1" transform="translate(143.0625,72.9375)"/>
<path d="M0 0 C1.98 0 3.96 0 6 0 C5.67 2.31 5.34 4.62 5 7 C4.34 7 3.68 7 3 7 C3 12.94 3 18.88 3 25 C2.01 25 1.02 25 0 25 C0 16.75 0 8.5 0 0 Z " fill="#F5CAB2" transform="translate(50,73)"/>
<path d="M0 0 C1.65 0 3.3 0 5 0 C5 0.99 5 1.98 5 3 C4.34 3 3.68 3 3 3 C3 9.93 3 16.86 3 24 C2.01 24 1.02 24 0 24 C0 16.08 0 8.16 0 0 Z " fill="#F5CBB2" transform="translate(106,73)"/>
<path d="M0 0 C2.02225194 3.0333779 2.99347524 5.61344489 4.125 9.0625 C4.47820313 10.12597656 4.83140625 11.18945312 5.1953125 12.28515625 C6 15 6 15 6 17 C7.32 17.33 8.64 17.66 10 18 C9.67 19.65 9.34 21.3 9 23 C7.68 23 6.36 23 5 23 C3.96164606 20.29727003 2.94426875 17.58948072 1.9375 14.875 C1.64294922 14.11445312 1.34839844 13.35390625 1.04492188 12.5703125 C-0.63805166 7.97678474 -1.36370594 4.87817096 0 0 Z " fill="#F4B199" transform="translate(56,75)"/>
<path d="M0 0 C1.98 0 3.96 0 6 0 C5.43603899 4.30803546 3.87131782 7.0194307 1.5 10.625 C-2.03633924 16.45381274 -3.09322933 21.23421412 -3 28 C-4.98 28 -6.96 28 -9 28 C-9.06058594 27.25234375 -9.12117188 26.5046875 -9.18359375 25.734375 C-9.26738281 24.74953125 -9.35117188 23.7646875 -9.4375 22.75 C-9.51871094 21.77546875 -9.59992188 20.8009375 -9.68359375 19.796875 C-9.95074584 17.43538247 -10.35371968 15.28098935 -11 13 C-9.51171875 14.14453125 -9.51171875 14.14453125 -8 16 C-7.70703125 18.69921875 -7.70703125 18.69921875 -7.8125 21.6875 C-7.83957031 22.68136719 -7.86664063 23.67523438 -7.89453125 24.69921875 C-7.92933594 25.45847656 -7.96414062 26.21773437 -8 27 C-6.68 27 -5.36 27 -4 27 C-4.12181641 26.03513672 -4.12181641 26.03513672 -4.24609375 25.05078125 C-4.86855941 16.14571131 -1.58283376 10.35357763 3 3 C1.68 3 0.36 3 -1 3 C-0.67 2.01 -0.34 1.02 0 0 Z " fill="#A85E4D" transform="translate(97,71)"/>
<path d="M0 0 C2.64 0 5.28 0 8 0 C7.67 8.91 7.34 17.82 7 27 C5.68 26.67 4.36 26.34 3 26 C3.99 26 4.98 26 6 26 C6 18.08 6 10.16 6 2 C4.35 2 2.7 2 1 2 C0.87882812 2.59167969 0.75765625 3.18335937 0.6328125 3.79296875 C-0.26744643 8.03803585 -1.20456621 12.02439661 -3 16 C-3.66 16 -4.32 16 -5 16 C-4.54548816 14.26982492 -4.08621143 12.54090123 -3.625 10.8125 C-3.36976562 9.84957031 -3.11453125 8.88664062 -2.8515625 7.89453125 C-2.05233704 5.17789793 -1.0968638 2.60862825 0 0 Z " fill="#C68978" transform="translate(69,71)"/>
<path d="M0 0 C3.97097416 3.36172881 4.06494135 7.0369964 5 12 C2.03 12 -0.94 12 -4 12 C-3.52494322 10.18641846 -3.04483958 8.37415821 -2.5625 6.5625 C-2.29566406 5.55316406 -2.02882812 4.54382813 -1.75390625 3.50390625 C-1 1 -1 1 0 0 Z " fill="#BC7360" transform="translate(142,77)"/>
<path d="M0 0 C1.32 0 2.64 0 4 0 C3.75 3.375 3.75 3.375 3 7 C2.02546875 7.41765625 2.02546875 7.41765625 1.03125 7.84375 C-1.31600298 8.86858358 -1.31600298 8.86858358 -1.828125 11.8203125 C-1.96734375 12.91085938 -2.1065625 14.00140625 -2.25 15.125 C-2.39953125 16.22070312 -2.5490625 17.31640625 -2.703125 18.4453125 C-2.80109375 19.28835937 -2.8990625 20.13140625 -3 21 C-3.33 21 -3.66 21 -4 21 C-4.48817841 12.98573769 -3.98837518 7.05087756 0 0 Z " fill="#8B877D" transform="translate(121,103)"/>
<path d="M0 0 C3.13111343 3.13111343 4.5143519 4.53075407 6.25 8.25 C6.58515625 8.95640625 6.9203125 9.6628125 7.265625 10.390625 C7.62914063 11.18726562 7.62914063 11.18726562 8 12 C6 12 6 12 4.375 10.5 C3.92125 10.005 3.4675 9.51 3 9 C2.67 11.64 2.34 14.28 2 17 C0.35 17.33 -1.3 17.66 -3 18 C-3.33 17.34 -3.66 16.68 -4 16 C-2.68 16 -1.36 16 0 16 C0 10.72 0 5.44 0 0 Z " fill="#F8D3C3" transform="translate(111,83)"/>
<path d="M0 0 C3.1875 -0.5 3.1875 -0.5 7 0 C9.55351065 2.76841006 12 6.13887863 12 10 C12.66 10 13.32 10 14 10 C14.433125 8.5459375 14.433125 8.5459375 14.875 7.0625 C16 4 16 4 18 3 C16.94124926 6.40312738 15.99097846 9.01353231 14 12 C9.57320993 10.52440331 9.08567304 8.09942632 7 4 C7 3.34 7 2.68 7 2 C5.68 2 4.36 2 3 2 C3.37253906 2.62648438 3.74507813 3.25296875 4.12890625 3.8984375 C4.60199219 4.71570313 5.07507813 5.53296875 5.5625 6.375 C6.27599609 7.59316406 6.27599609 7.59316406 7.00390625 8.8359375 C7.33261719 9.55007812 7.66132812 10.26421875 8 11 C7.67 11.66 7.34 12.32 7 13 C5.83072457 11.02237345 4.66464427 9.04285742 3.5 7.0625 C2.8503125 5.96035156 2.200625 4.85820313 1.53125 3.72265625 C0 1 0 1 0 0 Z " fill="#B06F61" transform="translate(78,71)"/>
<path d="M0 0 C3.22265625 -0.40625 3.22265625 -0.40625 7 0 C8.92409498 2.24838066 10.105419 3.94219177 11.4375 6.5 C11.78748047 7.12003906 12.13746094 7.74007812 12.49804688 8.37890625 C13.35569369 9.9062225 14.18111194 11.45155713 15 13 C15.33 8.71 15.66 4.42 16 0 C18.31 0 20.62 0 23 0 C23 0.33 23 0.66 23 1 C21.02 1 19.04 1 17 1 C17 5.95 17 10.9 17 16 C11.87294537 13.43647268 10.68997758 10.41796911 7.9765625 5.53125 C5.58208421 2.4648035 3.72708139 1.88190095 0 1 C0 0.67 0 0.34 0 0 Z " fill="#C68C80" transform="translate(105,71)"/>
<path d="M0 0 C0.66 0 1.32 0 2 0 C2 9.24 2 18.48 2 28 C1.67 28 1.34 28 1 28 C1 20.74 1 13.48 1 6 C-1.43378763 8.43378763 -2.9424887 10.31058948 -4.6875 13.1875 C-5.12449219 13.90292969 -5.56148438 14.61835937 -6.01171875 15.35546875 C-6.50091797 16.16951172 -6.50091797 16.16951172 -7 17 C-7.33 16.34 -7.66 15.68 -8 15 C-6.85546875 12.79296875 -6.85546875 12.79296875 -5.1875 10.1875 C-3.07065151 6.86389703 -1.36256253 3.70218209 0 0 Z " fill="#F6BDAE" transform="translate(103,71)"/>
<path d="M0 0 C0.66 0.33 1.32 0.66 2 1 C2 2.32 2 3.64 2 5 C2.99 3.35 3.98 1.7 5 0 C6.30664985 3.91994954 5.50190547 7.0507395 4.75 11 C4.62753906 11.72445312 4.50507812 12.44890625 4.37890625 13.1953125 C3.16187925 19.72628908 3.16187925 19.72628908 0 22 C0.144375 21.40832031 0.28875 20.81664062 0.4375 20.20703125 C1.40822694 16.07470059 2.27593702 12.2770238 2 8 C0.68 7.67 -0.64 7.34 -2 7 C-1.125 1.125 -1.125 1.125 0 0 Z " fill="#4E4A40" transform="translate(106,113)"/>
<path d="M0 0 C0.0270043 1.45823212 0.04639787 2.91660675 0.0625 4.375 C0.07410156 5.18710938 0.08570312 5.99921875 0.09765625 6.8359375 C0 9 0 9 -1 11 C-0.34 11.33 0.32 11.66 1 12 C0.01 12 -0.98 12 -2 12 C-2.33 9.69 -2.66 7.38 -3 5 C-3.99 5.33 -4.98 5.66 -6 6 C-6.33 7.65 -6.66 9.3 -7 11 C-7.33 11 -7.66 11 -8 11 C-8.3125 7.75 -8.3125 7.75 -8 4 C-5.24729252 1.09849752 -4.03996906 0 0 0 Z " fill="#8E897E" transform="translate(99,111)"/>
<path d="M0 0 C2.97 0 5.94 0 9 0 C9.33 1.32 9.66 2.64 10 4 C8.6078125 3.9071875 8.6078125 3.9071875 7.1875 3.8125 C4.0225416 3.63611419 4.0225416 3.63611419 2.5625 5.5 C1 7 1 7 -2.6875 7.1875 C-4.3271875 7.0946875 -4.3271875 7.0946875 -6 7 C-6 6.67 -6 6.34 -6 6 C-4.35 6 -2.7 6 -1 6 C-0.67 4.02 -0.34 2.04 0 0 Z " fill="#F8DAC6" transform="translate(138,93)"/>
<path d="M0 0 C3.12290635 0.48578543 5.99580359 0.9986012 9 2 C7.55922954 5.36179774 5.75249979 7.59156268 3 10 C2.34 10 1.68 10 1 10 C0.67 6.7 0.34 3.4 0 0 Z " fill="#C3BFB2" transform="translate(149,114)"/>
<path d="M0 0 C0.66 0.33 1.32 0.66 2 1 C0.68 5.29 -0.64 9.58 -2 14 C1.3 14 4.6 14 8 14 C8 14.33 8 14.66 8 15 C4.37 15 0.74 15 -3 15 C-3.66 16.98 -4.32 18.96 -5 21 C-5.66 20.67 -6.32 20.34 -7 20 C-4.69 13.4 -2.38 6.8 0 0 Z " fill="#ECAC95" transform="translate(140,77)"/>
<path d="M0 0 C1.32 0 2.64 0 4 0 C4.33773437 0.62648438 4.67546875 1.25296875 5.0234375 1.8984375 C5.46945313 2.71570313 5.91546875 3.53296875 6.375 4.375 C6.81585938 5.18710938 7.25671875 5.99921875 7.7109375 6.8359375 C8.9443893 9.10814302 8.9443893 9.10814302 11 11 C10.01 11 9.02 11 8 11 C7.67 11.99 7.34 12.98 7 14 C5.82807953 12.04480616 4.6626071 10.0857461 3.5 8.125 C2.8503125 7.03445312 2.200625 5.94390625 1.53125 4.8203125 C0 2 0 2 0 0 Z " fill="#F3B199" transform="translate(81,73)"/>
<path d="M0 0 C0.99 0 1.98 0 3 0 C3.09945415 6.11090483 3.0712828 11.97403427 2 18 C1.34 18 0.68 18 0 18 C0 12.06 0 6.12 0 0 Z " fill="#F8C6B0" transform="translate(123,73)"/>
<path d="M0 0 C0.99 0.33 1.98 0.66 3 1 C3.33 3.31 3.66 5.62 4 8 C3.67 8 3.34 8 3 8 C2.67 11.63 2.34 15.26 2 19 C1.34 18.67 0.68 18.34 0 18 C0 12.06 0 6.12 0 0 Z " fill="#BD6B56" transform="translate(53,80)"/>
<path d="M0 0 C3.89230769 4.95384615 3.89230769 4.95384615 5 8 C4.625 10.75 4.625 10.75 4 13 C3.34 11.68 2.68 10.36 2 9 C1.01 9.99 0.02 10.98 -1 12 C-0.67 10.02 -0.34 8.04 0 6 C-0.66 6 -1.32 6 -2 6 C-2 6.66 -2 7.32 -2 8 C-2.66 7.67 -3.32 7.34 -4 7 C-2.68 4.69 -1.36 2.38 0 0 Z " fill="#918D82" transform="translate(134,114)"/>
<path d="M0 0 C2.46301423 2.46301423 2.76766521 4.27360036 3.625 7.625 C3.88539062 8.62789062 4.14578125 9.63078125 4.4140625 10.6640625 C4.60742188 11.43492188 4.80078125 12.20578125 5 13 C1.7 13.33 -1.6 13.66 -5 14 C-5 13.67 -5 13.34 -5 13 C-3.35 13 -1.7 13 0 13 C0 8.71 0 4.42 0 0 Z " fill="#FAD3C0" transform="translate(55,86)"/>
<path d="M0 0 C1.18414294 3.55242882 0.69535532 4.69830562 -0.4375 8.1875 C-0.72496094 9.08855469 -1.01242188 9.98960937 -1.30859375 10.91796875 C-1.53675781 11.60503906 -1.76492187 12.29210937 -2 13 C-2.99 12.67 -3.98 12.34 -5 12 C-4.50769231 4.61538462 -4.50769231 4.61538462 -1.9375 1.5 C-1.298125 1.005 -0.65875 0.51 0 0 Z " fill="#DAD5C9" transform="translate(108,123)"/>
<path d="M0 0 C0.99 0 1.98 0 3 0 C2.67 4.29 2.34 8.58 2 13 C0.68 12.67 -0.64 12.34 -2 12 C-1.85904936 10.3745692 -1.71207913 8.74965949 -1.5625 7.125 C-1.48128906 6.22007813 -1.40007812 5.31515625 -1.31640625 4.3828125 C-1 2 -1 2 0 0 Z " fill="#F4B097" transform="translate(91,85)"/>
<path d="M0 0 C0.33 0 0.66 0 1 0 C1 2.31 1 4.62 1 7 C1.99 7.33 2.98 7.66 4 8 C-0.37433005 9.94414669 -3.31750465 10.56083178 -8 9 C-6.576875 8.1646875 -6.576875 8.1646875 -5.125 7.3125 C-1.91121213 4.93429698 -1.04434882 3.75965574 0 0 Z " fill="#9B978C" transform="translate(126,115)"/>
<path d="M0 0 C2.44839588 3.67259383 4 6.54648201 4 11 C2.68 11 1.36 11 0 11 C-0.84098656 6.98195309 -1.05404945 3.98196457 0 0 Z " fill="#F3AF96" transform="translate(150,87)"/>
<path d="M0 0 C0.33 0 0.66 0 1 0 C1.34615998 5.65394631 0.43425238 9.03006806 -2 14 C-2.66 14 -3.32 14 -4 14 C-3.36843005 8.94744036 -1.86540627 4.70406799 0 0 Z " fill="#FAD0B8" transform="translate(68,79)"/>
<path d="M0 0 C0.66 0 1.32 0 2 0 C2 1.65 2 3.3 2 5 C-3.625 7.125 -3.625 7.125 -7 6 C-6.67 4.68 -6.34 3.36 -6 2 C-6 2.66 -6 3.32 -6 4 C-3.69 4 -1.38 4 1 4 C0.67 2.68 0.34 1.36 0 0 Z " fill="#F9DBCA" transform="translate(155,95)"/>
<path d="M0 0 C0.66 0 1.32 0 2 0 C3.10844919 3.32534757 2.84454356 5.62182575 2 9 C1.67 8.01 1.34 7.02 1 6 C0.34 6 -0.32 6 -1 6 C-1.33 6.99 -1.66 7.98 -2 9 C-1.51421457 5.87709365 -1.0013988 3.00419641 0 0 Z " fill="#EEBE9F" transform="translate(71,74)"/>
<path d="M0 0 C1.98 0.99 1.98 0.99 4 2 C4.75 5.625 4.75 5.625 5 9 C4.34 9 3.68 9 3 9 C2.01 6.03 1.02 3.06 0 0 Z " fill="#FDECDA" transform="translate(152,86)"/>
<path d="M0 0 C0.66 0.33 1.32 0.66 2 1 C2.625 4.0625 2.625 4.0625 3 7 C1.35 7 -0.3 7 -2 7 C-1.34 4.69 -0.68 2.38 0 0 Z " fill="#F5C6B3" transform="translate(142,80)"/>
<path d="M0 0 C1.04449911 3.13349732 0.93423645 3.98968256 0 7 C-1.32 7 -2.64 7 -4 7 C-3.43628586 3.73045798 -2.50037734 2.17424117 0 0 Z " fill="#CAC6BA" transform="translate(108,123)"/>
<path d="M0 0 C0.33 1.32 0.66 2.64 1 4 C2.65 4.33 4.3 4.66 6 5 C6 5.99 6 6.98 6 8 C4.02 7.34 2.04 6.68 0 6 C0 4.02 0 2.04 0 0 Z " fill="#DAD7CC" transform="translate(111,116)"/>
<path d="M0 0 C1.485 0.99 1.485 0.99 3 2 C2.6875 3.9375 2.6875 3.9375 2 6 C1.01 6.33 0.02 6.66 -1 7 C-0.67 4.69 -0.34 2.38 0 0 Z " fill="#FAF8EB" transform="translate(113,113)"/>
<path d="M0 0 C1.32 0 2.64 0 4 0 C4.33 1.98 4.66 3.96 5 6 C4.01 5.67 3.02 5.34 2 5 C0.8125 2.4375 0.8125 2.4375 0 0 Z " fill="#FABBA2" transform="translate(81,73)"/>
<path d="M0 0 C1.98 0 3.96 0 6 0 C5.67 1.65 5.34 3.3 5 5 C4.34 4.34 3.68 3.68 3 3 C1.68 3 0.36 3 -1 3 C-0.67 2.01 -0.34 1.02 0 0 Z " fill="#B97A6E" transform="translate(97,71)"/>
<path d="M0 0 C2.97 0.33 5.94 0.66 9 1 C8.01 1.33 7.02 1.66 6 2 C6 2.66 6 3.32 6 4 C3.69 3.34 1.38 2.68 -1 2 C-0.67 1.34 -0.34 0.68 0 0 Z " fill="#FEF0DF" transform="translate(129,99)"/>
<path d="M0 0 C0.33 0 0.66 0 1 0 C1 2.64 1 5.28 1 8 C1.99 8.33 2.98 8.66 4 9 C1.03 8.505 1.03 8.505 -2 8 C-1.34 5.36 -0.68 2.72 0 0 Z " fill="#FEEBDA" transform="translate(69,91)"/>
<path d="M0 0 C0 2.64 0 5.28 0 8 C-1.37562854 6.71034824 -2.70766393 5.37310707 -4 4 C-4 3.34 -4 2.68 -4 2 C-1 0 -1 0 0 0 Z " fill="#FDEADB" transform="translate(121,77)"/>
<path d="M0 0 C0.66 0 1.32 0 2 0 C5 4.38461538 5 4.38461538 5 7 C3.68 7 2.36 7 1 7 C0.67 4.69 0.34 2.38 0 0 Z " fill="#FBE3D2" transform="translate(77,72)"/>
<path d="M0 0 C1.5625 1.25 1.5625 1.25 3 3 C2.6875 5.1875 2.6875 5.1875 2 7 C1.67 6.01 1.34 5.02 1 4 C0.01 5.32 -0.98 6.64 -2 8 C-1.125 1.125 -1.125 1.125 0 0 Z " fill="#B25F4A" transform="translate(142,77)"/>
<path d="M0 0 C1.98 0 3.96 0 6 0 C5.34 1.65 4.68 3.3 4 5 C3.34 5 2.68 5 2 5 C1.34 3.35 0.68 1.7 0 0 Z " fill="#FADED0" transform="translate(88,76)"/>
</svg>
